<?xml version="1.0" encoding="utf-8"?>
<!-- Generator: Adobe Illustrator 22.1.0, SVG Export Plug-In . SVG Version: 6.00 Build 0)  -->
<svg version="1.1" id="Capa_1" xmlns="http://www.w3.org/2000/svg" xmlns:xlink="http://www.w3.org/1999/xlink" x="0px" y="0px"
	 viewBox="0 0 384 384" style="enable-background:new 0 0 384 384;" xml:space="preserve">
<style type="text/css">
	.st0{fill:#FFFFFF;}
</style>
<polygon class="st0" points="234.4,234.4 301.7,234.4 301.7,212 212,212 212,301.7 234.4,301.7 "/>
<polygon class="st0" points="234.4,82.3 212,82.3 212,172 301.7,172 301.7,149.6 234.4,149.6 "/>
<polygon class="st0" points="149.6,149.6 82.3,149.6 82.3,172 172,172 172,82.3 149.6,82.3 "/>
<polygon class="st0" points="82.3,212 82.3,234.4 149.6,234.4 149.6,301.7 172,301.7 172,212 "/>
<polygon class="st0" points="267.8,132 346.4,53.5 330.5,37.6 252,116.2 "/>
<polygon class="st0" points="116.2,252 37.6,330.5 53.5,346.4 132,267.8 "/>
<polygon class="st0" points="132,116.2 53.5,37.6 37.6,53.5 116.2,132 "/>
<polygon class="st0" points="252,267.8 330.5,346.4 346.4,330.5 267.8,252 "/>
</svg>
