<?xml version="1.0" encoding="utf-8"?>
<!-- Generator: Adobe Illustrator 22.1.0, SVG Export Plug-In . SVG Version: 6.00 Build 0)  -->
<svg version="1.1" id="Слой_1" xmlns="http://www.w3.org/2000/svg" xmlns:xlink="http://www.w3.org/1999/xlink" x="0px" y="0px"
	 viewBox="0 0 510.2 510.2" style="enable-background:new 0 0 510.2 510.2;" xml:space="preserve">
<g id="solid">
	<path d="M51.3,152.2c0,6.5,3.5,12.5,9.1,15.8v-31.6C54.8,139.7,51.3,145.7,51.3,152.2L51.3,152.2z"/>
	<path d="M389.3,344.5V70h-54.8c-5,0-9.1-4.1-9.1-9.1V6.1H78.7v70.6c4.3-2.4,7.3-6.5,8.6-11.2c1.3-4.9,6.2-7.8,11.1-6.6
		c4.9,1.3,7.8,6.2,6.6,11.1c-3.3,12.9-13.4,22.9-26.3,26.3v71.8c4.3-2.4,7.3-6.5,8.6-11.2c1.3-4.9,6.2-7.8,11.1-6.6
		c4.9,1.3,7.8,6.2,6.6,11.1l0,0c-3.3,12.9-13.4,22.9-26.3,26.3v71.8c4.3-2.4,7.3-6.5,8.6-11.2c1.3-4.9,6.2-7.8,11.1-6.6
		s7.8,6.2,6.6,11.1l0,0c-3.3,12.9-13.4,22.9-26.3,26.3v62.6c4.3-2.4,7.3-6.5,8.6-11.2c1.3-4.9,6.2-7.8,11.1-6.6
		c4.9,1.3,7.8,6.2,6.6,11.1l0,0c-3.3,12.9-13.4,22.9-26.3,26.3v46.8h273.4L389.3,344.5z M142.7,88.3h200.9c5,0,9.1,4.1,9.1,9.1
		s-4.1,9.1-9.1,9.1H142.7c-5,0-9.1-4.1-9.1-9.1C133.5,92.4,137.6,88.3,142.7,88.3z M142.7,143.1h200.9c5,0,9.1,4.1,9.1,9.1
		s-4.1,9.1-9.1,9.1H142.7c-5,0-9.1-4.1-9.1-9.1C133.5,147.2,137.6,143.1,142.7,143.1z M142.7,197.9h200.9c5,0,9.1,4.1,9.1,9.1
		s-4.1,9.1-9.1,9.1H142.7c-5,0-9.1-4.1-9.1-9.1S137.6,197.9,142.7,197.9z M215.7,325.8h-73.1c-5,0-9.1-4.1-9.1-9.1s4.1-9.1,9.1-9.1
		h73.1c5,0,9.1,4.1,9.1,9.1S220.8,325.8,215.7,325.8z M343.6,271H142.7c-5,0-9.1-4.1-9.1-9.1s4.1-9.1,9.1-9.1h200.9
		c5,0,9.1,4.1,9.1,9.1S348.6,271,343.6,271z"/>
	<path d="M51.3,243.6c0,6.5,3.5,12.5,9.1,15.8v-31.6C54.8,231,51.3,237.1,51.3,243.6L51.3,243.6z"/>
	<path d="M404.9,54.5c1.7,1.7,2.7,4,2.7,6.4v252.4l18.4-31.5c-0.1-0.6-0.2-1.2-0.2-1.8V33.5h-41.9L404.9,54.5L404.9,54.5z"/>
	<path d="M343.6,19v32.8h32.8L343.6,19z"/>
	<path d="M51.3,325.8c0,6.5,3.5,12.5,9.1,15.8V310C54.8,313.3,51.3,319.3,51.3,325.8L51.3,325.8z"/>
	<path d="M51.3,60.9c0,6.5,3.5,12.5,9.1,15.8V45.1C54.8,48.4,51.3,54.4,51.3,60.9z"/>
	<path d="M326.7,505.5l10.2-7.9l-8.2-4.8L326.7,505.5z"/>
	<path d="M334.3,474.9L454.5,270l15.8,9.2l-120.2,205L334.3,474.9z"/>
	<path d="M494.4,219.4c-4.4-2.5-9.9-1.1-12.5,3.3l-4.6,7.9l15.8,9.2l4.6-7.9C500.2,227.5,498.7,222,494.4,219.4L494.4,219.4z"/>
	<path d="M463.6,254.2l4.6-7.9l15.8,9.2l-4.6,7.9L463.6,254.2z"/>
	<path d="M341.4,426.3H97v18.3h233.7L341.4,426.3z"/>
	<path d="M425.8,444.5v-54l-31.6,54H425.8z"/>
</g>
</svg>
