<?xml version="1.0" encoding="utf-8"?>
<!-- Generator: Adobe Illustrator 22.1.0, SVG Export Plug-In . SVG Version: 6.00 Build 0)  -->
<svg version="1.1" id="Слой_2_Изображение"
	 xmlns="http://www.w3.org/2000/svg" xmlns:xlink="http://www.w3.org/1999/xlink" x="0px" y="0px" viewBox="0 0 317.6 308"
	 style="enable-background:new 0 0 317.6 308;" xml:space="preserve">
<style type="text/css">
	.st0{fill:#FFFFFF;}
</style>
<title>srtucture</title>
<path class="st0" d="M317.6,269.2c-0.5,2.7-0.8,5.5-1.4,8.2c-4.6,18.8-21.3,31.3-40.9,30.5c-18.3-0.7-34.1-14.9-37.2-33.3
	c-4.2-24.9,15.8-47.4,41.1-46.4c19.3,0.8,36.5,16.1,38,36.7c0.1,0.8,0.3,1.6,0.5,2.3L317.6,269.2z"/>
<path class="st0" d="M198.5,39.9c-0.1,22-17.9,39.8-39.9,39.7s-39.8-17.9-39.7-39.9c0.1-22,17.9-39.8,39.9-39.7
	C180.8,0.1,198.5,17.9,198.5,39.9z"/>
<path class="st0" d="M39.9,228.3c22,0,39.8,17.9,39.8,39.9S61.8,308,39.8,308S0,290.1,0,268.1c0,0,0-0.1,0-0.1
	C0,246,17.9,228.3,39.9,228.3z"/>
<path class="st0" d="M158.8,150.1c19.2,0.1,34.8,15.8,34.7,35c-0.1,19.2-15.8,34.8-35,34.7c-19.2-0.1-34.7-15.7-34.7-34.9
	c0-19.2,15.6-34.8,34.9-34.8C158.7,150.1,158.7,150.1,158.8,150.1z"/>
<path class="st0" d="M143,227.8l-3.1,8c-9.3-3.3-16.7-8.9-23.1-16.1l-35.8,25l-5-7.2l35.8-25.1c-4.7-8.5-7.4-17.3-7.3-27.3
	c2.5,0,4.8,0,7.1,0c1.4,0,1.4,0.9,1.5,1.9c0.8,4.3,1.2,8.8,2.6,12.9c4.3,12.5,12.7,21.4,24.8,26.8C141.3,226.9,142,227.3,143,227.8z
	"/>
<path class="st0" d="M241.4,237.5c-1.5,2.2-2.9,4.1-4.2,6.1c-0.2,0.3-0.5,0.6-0.9,1l-35.7-25c-6.1,7.3-14.1,12.9-23.1,16.2
	c-1-2.7-2-5.2-3.1-8c1-0.5,1.9-0.8,2.7-1.2c16.1-7.7,25.2-20.4,26.9-38.2c0.3-3.3,0.2-3.3,3.5-3.2c1.7,0,3.5,0,5.4,0
	c0,9.6-2.6,19-7.3,27.3L241.4,237.5z"/>
<path class="st0" d="M132.6,147.5l-4.7-7c0.7-0.5,1.3-1,1.9-1.3c6.7-4.4,14.4-7.1,22.4-8c1.9-0.2,2.4-0.9,2.4-2.7c-0.1-12,0-24,0-36
	c0-5.5,0-5.5,5.6-5.5c0.9,0,1.9,0.1,3,0.1v3c0,12.7,0,25.4,0,38.2c0,1.8,0.4,2.6,2.4,2.8c8.7,1,17,4.2,24.2,9.3l-4.8,7.1
	C167.4,136.7,150.1,136.6,132.6,147.5z"/>
</svg>
