<?xml version="1.0" encoding="utf-8"?>
<!-- Generator: Adobe Illustrator 22.1.0, SVG Export Plug-In . SVG Version: 6.00 Build 0)  -->
<svg version="1.1" id="Capa_1" xmlns="http://www.w3.org/2000/svg" xmlns:xlink="http://www.w3.org/1999/xlink" x="0px" y="0px"
	 viewBox="0 0 512 512" style="enable-background:new 0 0 512 512;" xml:space="preserve">
<style type="text/css">
	.st0{fill:#FFFFFF;}
</style>
<path class="st0" d="M428.5,174C419.1,106.6,367.3,52.5,301,39.8v30.7c49.7,11.9,88.4,52.6,97.1,103.5H363l50,50l50-50H428.5z"/>
<path class="st0" d="M135.3,76.9h-0.4c-0.7,4.4-1.5,7.8-2.5,10.4l-24.1,65.9h53.6l-24.3-65.9C136.9,85.1,136.1,81.7,135.3,76.9z"/>
<path class="st0" d="M271,241V0H0v271h241v241h271V241H271z M184.3,212.9l-16.4-43.4h-65.6l-15.4,43.4H66.7L126,58.1h18.8
	l59.6,154.7H184.3z M415.8,455c-4-5.8-7.7-11.2-11.1-16.2s-6.7-9.8-9.9-14.4c-3.2-4.7-6.3-9.3-9.5-13.8c-3.1-4.6-6.5-9.4-10-14.4
	c-3.6-5-7.4-10.4-11.5-16.2c-4.1-5.8-8.7-12.1-13.8-19.2c-3.4,3.3-6.1,6.6-8.3,9.8c-2.1,3.2-3.8,6.5-5,10c-1.2,3.4-2,7.1-2.3,11
	s-0.6,8.3-0.6,13V455h-21.5v-51.8c0-6.4,0.5-12.2,1.5-17.2c1-5,2.6-9.8,4.8-14.2c2.2-4.4,5-8.6,8.5-12.6c3.5-4,7.7-8.2,12.8-12.5
	l-27.8-39.6l18-9c3.8,5.1,7.6,10.2,11.4,15.3c3.8,5.1,7.5,10.1,11,15c3.6,4.9,7,9.7,10.3,14.3c3.3,4.6,6.4,9,9.3,13
	c6.7,9.5,13,18.5,18.9,27.2c14.7-8.4,22.1-21.6,22.1-39.6v-44.3h21.6v40.5c0,6.9-0.7,13.2-2.1,18.9c-1.4,5.6-3.5,10.7-6.2,15.4
	c-2.8,4.6-6.2,8.8-10.3,12.6c-4.1,3.8-8.9,7.4-14.4,10.9l39,57.8H415.8z"/>
<path class="st0" d="M113.5,336H147l-50-50l-50,50h36.2C91.8,404.4,144,459.4,211,472.2v-30.7C160.6,429.5,121.6,387.8,113.5,336z"
	/>
</svg>
