<svg id="Слой_6" data-name="Слой 6" xmlns="http://www.w3.org/2000/svg" width="619.75" height="391.96" viewBox="0 0 619.75 391.96">
  <defs>
    <style>
      .cls-1, .cls-4 {
        fill: none;
        stroke-width: 3px;
      }

      .cls-1 {
        stroke: #333;
      }

      .cls-2 {
        fill: #5a5a5a;
      }

      .cls-3, .cls-4 {
        isolation: isolate;
      }

      .cls-4 {
        stroke: #3fb0dc;
        stroke-dasharray: 15 8;
        opacity: 0.8;
      }

      .cls-5 {
        fill: #3fb0dc;
      }
    </style>
  </defs>
  <title>graphic-2</title>
  <line class="cls-1" x1="102.63" y1="385.62" x2="102.63" y2="9"/>
  <line class="cls-1" x1="95.5" y1="9" x2="109.75" y2="9"/>
  <line class="cls-1" x1="95.5" y1="385.62" x2="109.75" y2="385.62"/>
  <line class="cls-1" x1="95.5" y1="197.31" x2="109.75" y2="197.31"/>
  <g id="yTitle">
    <path class="cls-2" d="M36.3,293.3v2.63h6v1.88H27.41v-4.18a4.47,4.47,0,0,1,1.14-3.32,4.58,4.58,0,0,1,3.35-1.13,4.62,4.62,0,0,1,2.41.61,3.78,3.78,0,0,1,1.55,1.73l6.35-2.89h.12v2Zm-1.61,2.63v-2.28a2.65,2.65,0,0,0-.23-1.13,2.17,2.17,0,0,0-.59-.8,2.44,2.44,0,0,0-.88-.49,3.5,3.5,0,0,0-1.09-.16,4.77,4.77,0,0,0-1.18.14,2.67,2.67,0,0,0-.91.45,2.07,2.07,0,0,0-.58.8,2.92,2.92,0,0,0-.2,1.17v2.3Z" transform="translate(-26.58 -21.13)"/>
    <path class="cls-2" d="M42.54,283a5.05,5.05,0,0,1-.3,1.79,3.44,3.44,0,0,1-.91,1.36,4.1,4.1,0,0,1-1.54.86,7.52,7.52,0,0,1-2.2.29H36.34a7.45,7.45,0,0,1-2.48-.35,4.68,4.68,0,0,1-1.64-.91,3.42,3.42,0,0,1-.91-1.31,4.4,4.4,0,0,1-.27-1.53,4.16,4.16,0,0,1,.34-1.78,2.9,2.9,0,0,1,1-1.21,4.3,4.3,0,0,1,1.64-.69,10.73,10.73,0,0,1,2.24-.21h1.06v6.19h.26a4.08,4.08,0,0,0,2.59-.67,2.37,2.37,0,0,0,.81-1.94,3.58,3.58,0,0,0-.09-.83,2.83,2.83,0,0,0-.26-.67,2.91,2.91,0,0,0-.4-.57,4.66,4.66,0,0,0-.51-.48l1.15-.94a3.81,3.81,0,0,1,.61.54,3.31,3.31,0,0,1,.53.76,4.43,4.43,0,0,1,.38,1A5.6,5.6,0,0,1,42.54,283Zm-9.95.2a2.41,2.41,0,0,0,.15.87,1.57,1.57,0,0,0,.51.71,2.66,2.66,0,0,0,1,.48,6.28,6.28,0,0,0,1.55.23v-4.37h-.24a8.27,8.27,0,0,0-1.19.14,2.77,2.77,0,0,0-.93.34,1.56,1.56,0,0,0-.6.62A2.06,2.06,0,0,0,32.59,283.16Z" transform="translate(-26.58 -21.13)"/>
    <path class="cls-2" d="M42.33,275.13V277H26.58v-1.82Z" transform="translate(-26.58 -21.13)"/>
    <path class="cls-2" d="M42.33,266.57a2.34,2.34,0,0,1-.52.15c-.22,0-.45.07-.68.09a4.51,4.51,0,0,1,.54.44,3.12,3.12,0,0,1,.76,1.24,2.83,2.83,0,0,1,.11.78,3.87,3.87,0,0,1-.21,1.31,2.58,2.58,0,0,1-1.62,1.66,4,4,0,0,1-1.4.23,3.79,3.79,0,0,1-1.48-.28,3.19,3.19,0,0,1-1.17-.82,4.06,4.06,0,0,1-.77-1.36,5.86,5.86,0,0,1-.28-1.91v-1.26H34.43a1.56,1.56,0,0,0-1.84,1.78,2.14,2.14,0,0,0,.14.79,1.77,1.77,0,0,0,.38.58,1.57,1.57,0,0,0,.55.35,1.59,1.59,0,0,0,.66.13v1.81a2.84,2.84,0,0,1-1.19-.26,3.17,3.17,0,0,1-1.05-.75,3.75,3.75,0,0,1-.76-1.18,4.13,4.13,0,0,1-.28-1.56,5.23,5.23,0,0,1,.18-1.41,2.82,2.82,0,0,1,.59-1.11,2.77,2.77,0,0,1,1.06-.72,4.32,4.32,0,0,1,1.58-.26h5.47c.18,0,.37,0,.58,0a5.8,5.8,0,0,0,.6-.06,4.78,4.78,0,0,0,.57-.12,3.27,3.27,0,0,0,.5-.15h.16ZM40.89,269a2.46,2.46,0,0,0-.11-.72,2.89,2.89,0,0,0-.3-.61,2.18,2.18,0,0,0-.41-.49,2,2,0,0,0-.47-.33H37v1A4.4,4.4,0,0,0,37.1,269a2.66,2.66,0,0,0,.41.9,1.83,1.83,0,0,0,.67.57,2.06,2.06,0,0,0,.91.2,3,3,0,0,0,.85-.1,1.28,1.28,0,0,0,.55-.31,1.13,1.13,0,0,0,.31-.52A2.6,2.6,0,0,0,40.89,269Z" transform="translate(-26.58 -21.13)"/>
    <path class="cls-2" d="M28.55,259.84h2.69v-1.67h1.47v1.67h6.88a2.25,2.25,0,0,0,.69-.08.94.94,0,0,0,.4-.21.6.6,0,0,0,.19-.31,1.34,1.34,0,0,0,.05-.35,2.17,2.17,0,0,0-.05-.41c0-.15,0-.26-.07-.32l1.53,0a4.46,4.46,0,0,1,.14.49,3.31,3.31,0,0,1,.07.77,2.41,2.41,0,0,1-.15.85,1.68,1.68,0,0,1-.5.7,2.52,2.52,0,0,1-.91.48,4.72,4.72,0,0,1-1.4.18H32.71v1.69H31.24v-1.69H28.55Z" transform="translate(-26.58 -21.13)"/>
    <path class="cls-2" d="M28.3,256a1.2,1.2,0,0,1-.78-.26,1.09,1.09,0,0,1,0-1.54,1.31,1.31,0,0,1,1.55,0,1.15,1.15,0,0,1,0,1.55A1.19,1.19,0,0,1,28.3,256Zm14-1.92v1.82H31.24v-1.82Z" transform="translate(-26.58 -21.13)"/>
    <path class="cls-2" d="M39.58,248.06,31.24,246v-1.84l11.09,3.29v1.35l-11.09,3.33v-1.84Z" transform="translate(-26.58 -21.13)"/>
    <path class="cls-2" d="M42.54,238.39a5.11,5.11,0,0,1-.3,1.8,3.51,3.51,0,0,1-.91,1.36,4.08,4.08,0,0,1-1.54.85,7.18,7.18,0,0,1-2.2.3H36.34a7.71,7.71,0,0,1-2.48-.35,4.69,4.69,0,0,1-1.64-.92,3.38,3.38,0,0,1-.91-1.3A4.44,4.44,0,0,1,31,238.6a4.24,4.24,0,0,1,.34-1.79,3,3,0,0,1,1-1.21,4.46,4.46,0,0,1,1.64-.68,10.06,10.06,0,0,1,2.24-.22h1.06v6.19h.26a4,4,0,0,0,2.59-.67,2.35,2.35,0,0,0,.81-1.93,3.52,3.52,0,0,0-.09-.83,2.91,2.91,0,0,0-.26-.68,3.17,3.17,0,0,0-.4-.56,4.66,4.66,0,0,0-.51-.48l1.15-1a3.89,3.89,0,0,1,.61.55,3.11,3.11,0,0,1,.53.76,4.43,4.43,0,0,1,.38,1A5.51,5.51,0,0,1,42.54,238.39Zm-9.95.21a2.49,2.49,0,0,0,.15.87,1.5,1.5,0,0,0,.51.7,2.67,2.67,0,0,0,1,.49,6.33,6.33,0,0,0,1.55.22v-4.36h-.24a7.06,7.06,0,0,0-1.19.14,3,3,0,0,0-.93.33,1.62,1.62,0,0,0-.6.62A2.07,2.07,0,0,0,32.59,238.6Z" transform="translate(-26.58 -21.13)"/>
    <path class="cls-2" d="M28.3,227.68a1.2,1.2,0,0,1-.78-.26,1.09,1.09,0,0,1,0-1.54,1.31,1.31,0,0,1,1.55,0,1.15,1.15,0,0,1,0,1.55A1.19,1.19,0,0,1,28.3,227.68Zm14-1.92v1.82H31.24v-1.82Z" transform="translate(-26.58 -21.13)"/>
    <path class="cls-2" d="M31.24,221.2l1.2,0a3.79,3.79,0,0,1-1-1.19,3.18,3.18,0,0,1-.36-1.51,3.24,3.24,0,0,1,.22-1.23,2.22,2.22,0,0,1,.7-.94,3.55,3.55,0,0,1,1.25-.6,7.05,7.05,0,0,1,1.85-.22h7.27v1.81H35a3,3,0,0,0-1.85.44,1.57,1.57,0,0,0-.54,1.3,1.86,1.86,0,0,0,.45,1.22,3.09,3.09,0,0,0,1.18.86h8v1.82H31.24Z" transform="translate(-26.58 -21.13)"/>
    <path class="cls-2" d="M28.55,210.37h2.69V208.7h1.47v1.67h6.88a2.61,2.61,0,0,0,.69-.08,1.07,1.07,0,0,0,.4-.22.61.61,0,0,0,.19-.3,1.34,1.34,0,0,0,.05-.35,2.08,2.08,0,0,0-.05-.41c0-.15,0-.26-.07-.32l1.53,0a3.45,3.45,0,0,1,.14.49,3.26,3.26,0,0,1,.07.77,2.4,2.4,0,0,1-.15.84,1.62,1.62,0,0,1-.5.7A2.38,2.38,0,0,1,41,212a4.72,4.72,0,0,1-1.4.18H32.71v1.7H31.24v-1.7H28.55Z" transform="translate(-26.58 -21.13)"/>
    <path class="cls-2" d="M42.54,202.58a5.05,5.05,0,0,1-.3,1.79,3.44,3.44,0,0,1-.91,1.36,4.1,4.1,0,0,1-1.54.86,7.52,7.52,0,0,1-2.2.29H36.34a7.45,7.45,0,0,1-2.48-.35,4.68,4.68,0,0,1-1.64-.91,3.42,3.42,0,0,1-.91-1.31,4.4,4.4,0,0,1-.27-1.53,4.16,4.16,0,0,1,.34-1.78,2.9,2.9,0,0,1,1-1.21A4.3,4.3,0,0,1,34,199.1a10.69,10.69,0,0,1,2.24-.22h1.06v6.2h.26a4.08,4.08,0,0,0,2.59-.67,2.39,2.39,0,0,0,.81-1.94,3.58,3.58,0,0,0-.09-.83,2.83,2.83,0,0,0-.26-.67,2.91,2.91,0,0,0-.4-.57,4.66,4.66,0,0,0-.51-.48l1.15-.94a3.81,3.81,0,0,1,.61.54,3.31,3.31,0,0,1,.53.76,4.43,4.43,0,0,1,.38,1A5.6,5.6,0,0,1,42.54,202.58Zm-9.95.2a2.41,2.41,0,0,0,.15.87,1.57,1.57,0,0,0,.51.71,2.66,2.66,0,0,0,1,.48,6.79,6.79,0,0,0,1.55.23V200.7h-.24a8.27,8.27,0,0,0-1.19.14,2.77,2.77,0,0,0-.93.34,1.56,1.56,0,0,0-.6.62A2,2,0,0,0,32.59,202.78Z" transform="translate(-26.58 -21.13)"/>
    <path class="cls-2" d="M31.24,195l1.2-.05a3.79,3.79,0,0,1-1-1.19,3.18,3.18,0,0,1-.36-1.51,3.24,3.24,0,0,1,.22-1.23,2.22,2.22,0,0,1,.7-.94,3.55,3.55,0,0,1,1.25-.6,7.09,7.09,0,0,1,1.85-.21h7.27v1.8H35a3,3,0,0,0-1.85.44,1.57,1.57,0,0,0-.54,1.3A1.84,1.84,0,0,0,33.1,194a3.22,3.22,0,0,0,1.18.87h8v1.81H31.24Z" transform="translate(-26.58 -21.13)"/>
    <path class="cls-2" d="M39.49,181.16a1.23,1.23,0,0,0-.55.11,1.47,1.47,0,0,0-.49.37,3.76,3.76,0,0,0-.45.66,10.47,10.47,0,0,0-.49,1q-.33.76-.63,1.38a4.76,4.76,0,0,1-.68,1,2.65,2.65,0,0,1-.86.64,2.76,2.76,0,0,1-1.16.22,3,3,0,0,1-1.23-.25,3.2,3.2,0,0,1-1-.71,3.61,3.61,0,0,1-.67-1.11,4.56,4.56,0,0,1,0-3,3.16,3.16,0,0,1,.71-1.13,3.12,3.12,0,0,1,1.08-.71,3.6,3.6,0,0,1,1.32-.25v1.81a1.84,1.84,0,0,0-.66.12,1.68,1.68,0,0,0-1,.9,1.84,1.84,0,0,0-.16.76,2.29,2.29,0,0,0,.13.79,1.67,1.67,0,0,0,.34.53,1.44,1.44,0,0,0,.49.3,1.79,1.79,0,0,0,.57.09,1.41,1.41,0,0,0,.53-.08,1.06,1.06,0,0,0,.41-.3,3,3,0,0,0,.39-.59c.13-.25.28-.57.46-1a15.55,15.55,0,0,1,.66-1.5,5.42,5.42,0,0,1,.72-1.09,2.82,2.82,0,0,1,.9-.66,2.87,2.87,0,0,1,1.17-.23,3.27,3.27,0,0,1,1.32.26,2.75,2.75,0,0,1,1,.75,3.3,3.3,0,0,1,.64,1.15,4.81,4.81,0,0,1,.22,1.5,4.53,4.53,0,0,1-.29,1.67,3.76,3.76,0,0,1-.78,1.22,3.34,3.34,0,0,1-1.12.75,3.78,3.78,0,0,1-1.33.25v-1.83a2.28,2.28,0,0,0,1-.21,1.84,1.84,0,0,0,.6-.49,1.57,1.57,0,0,0,.31-.65A2.94,2.94,0,0,0,41,183a2,2,0,0,0-.4-1.37A1.36,1.36,0,0,0,39.49,181.16Z" transform="translate(-26.58 -21.13)"/>
    <path class="cls-2" d="M28.3,176.94a1.2,1.2,0,0,1-.78-.25,1.1,1.1,0,0,1,0-1.55,1.24,1.24,0,0,1,.78-.26,1.19,1.19,0,0,1,.77.26,1.15,1.15,0,0,1,0,1.55A1.19,1.19,0,0,1,28.3,176.94Zm14-1.92v1.82H31.24V175Z" transform="translate(-26.58 -21.13)"/>
    <path class="cls-2" d="M28.55,169.79h2.69v-1.67h1.47v1.67h6.88a2.25,2.25,0,0,0,.69-.08.94.94,0,0,0,.4-.21.61.61,0,0,0,.19-.3,1.49,1.49,0,0,0,.05-.36,2.17,2.17,0,0,0-.05-.41c0-.15,0-.26-.07-.32l1.53,0a4.46,4.46,0,0,1,.14.49,3.31,3.31,0,0,1,.07.77,2.41,2.41,0,0,1-.15.85,1.68,1.68,0,0,1-.5.7,2.52,2.52,0,0,1-.91.48,4.72,4.72,0,0,1-1.4.18H32.71v1.69H31.24V171.6H28.55Z" transform="translate(-26.58 -21.13)"/>
    <path class="cls-2" d="M39.32,162.93l-8.08-2V159l12.81,3.67a6.35,6.35,0,0,1,.89.34,4.22,4.22,0,0,1,.9.56,3,3,0,0,1,.69.82,2.07,2.07,0,0,1,.29,1.1,2,2,0,0,1,0,.23c0,.09,0,.18,0,.27s0,.17,0,.25a1.67,1.67,0,0,1-.05.19H45.11a.49.49,0,0,0,0-.2,1.72,1.72,0,0,0,0-.2,2.55,2.55,0,0,0-.09-.71,1.56,1.56,0,0,0-.3-.55,1.91,1.91,0,0,0-.56-.42,4.9,4.9,0,0,0-.86-.32l-1.1-.32-11,3.26v-2Z" transform="translate(-26.58 -21.13)"/>
    <path class="cls-2" d="M41.61,156.52a4.1,4.1,0,0,1,1,.11,5.41,5.41,0,0,1,1,.35,6.47,6.47,0,0,1,.94.56,4.12,4.12,0,0,1,.8.76l-.74,1.08a5.71,5.71,0,0,0-1.39-.75,4.52,4.52,0,0,0-1.54-.26H40.09v-1.85Z" transform="translate(-26.58 -21.13)"/>
    <path class="cls-2" d="M30.28,149.65a3.87,3.87,0,0,1-1.2-.18,3,3,0,0,1-1-.52,2.36,2.36,0,0,1-.66-.81,2.55,2.55,0,0,1,0-2.2,2.43,2.43,0,0,1,.66-.83,3.15,3.15,0,0,1,1-.51,3.87,3.87,0,0,1,1.2-.17h.79a3.83,3.83,0,0,1,1.18.17,3,3,0,0,1,1,.51,2.51,2.51,0,0,1,.67.81,2.64,2.64,0,0,1,0,2.2,2.58,2.58,0,0,1-.67.83,3,3,0,0,1-1,.52,3.83,3.83,0,0,1-1.18.18Zm.79-1.33a3,3,0,0,0,.68-.07,1.84,1.84,0,0,0,.59-.25,1.15,1.15,0,0,0,.41-.41,1.05,1.05,0,0,0,.15-.57,1,1,0,0,0-.15-.56,1.31,1.31,0,0,0-.41-.4,1.9,1.9,0,0,0-.58-.23,3.1,3.1,0,0,0-.69-.08h-.79a3.27,3.27,0,0,0-.7.08,1.93,1.93,0,0,0-.59.24,1.42,1.42,0,0,0-.41.4,1.16,1.16,0,0,0,0,1.14,1.42,1.42,0,0,0,.41.4,1.93,1.93,0,0,0,.59.24,3.26,3.26,0,0,0,.7.07Zm10.14-1.67-.68,1-11.67-6.13.68-1Zm-2.54-3a3.94,3.94,0,0,1-1.19-.18,2.83,2.83,0,0,1-1-.52,2.51,2.51,0,0,1-.67-.81,2.64,2.64,0,0,1,0-2.2,2.58,2.58,0,0,1,.67-.83,3,3,0,0,1,1-.51,3.94,3.94,0,0,1,1.19-.18h.8a3.87,3.87,0,0,1,1.2.18,3,3,0,0,1,1,.51,2.49,2.49,0,0,1,.66.82,2.52,2.52,0,0,1,0,2.19,2.43,2.43,0,0,1-.66.83,3,3,0,0,1-1,.52,3.87,3.87,0,0,1-1.2.18Zm.8-1.33a3.26,3.26,0,0,0,.7-.07,2.21,2.21,0,0,0,.59-.24,1.46,1.46,0,0,0,.41-.41,1.11,1.11,0,0,0,.15-.58,1,1,0,0,0-.15-.56,1.42,1.42,0,0,0-.41-.4,2.2,2.2,0,0,0-.59-.23,3.27,3.27,0,0,0-.7-.08h-.8a3.17,3.17,0,0,0-.69.08,1.77,1.77,0,0,0-.58.24,1.42,1.42,0,0,0-.41.4,1.16,1.16,0,0,0,0,1.14,1.56,1.56,0,0,0,.41.4,2,2,0,0,0,.58.24,3.17,3.17,0,0,0,.69.07Z" transform="translate(-26.58 -21.13)"/>
  </g>
  <g class="cls-3">
    <path class="cls-2" d="M85.56,36.26H83.73V23.62L80.59,25V23.3l4.68-2h.29Z" transform="translate(-26.58 -21.13)"/>
    <path class="cls-2" d="M98.5,29.9A15,15,0,0,1,98.22,33a6.18,6.18,0,0,1-.8,2,3.16,3.16,0,0,1-1.26,1.11,4.15,4.15,0,0,1-3.29,0A3.18,3.18,0,0,1,91.6,35a6,6,0,0,1-.81-2,13.63,13.63,0,0,1-.29-3.09V27.62a13.47,13.47,0,0,1,.29-3.08,5.88,5.88,0,0,1,.81-2,3,3,0,0,1,1.25-1.08,4.27,4.27,0,0,1,3.29,0,3.08,3.08,0,0,1,1.26,1.08,5.88,5.88,0,0,1,.81,2,14.06,14.06,0,0,1,.29,3.08Zm-1.82-2.6a14.36,14.36,0,0,0-.14-2.14,5.21,5.21,0,0,0-.42-1.43,2,2,0,0,0-.69-.8,1.83,1.83,0,0,0-.94-.24,1.79,1.79,0,0,0-.93.24,1.88,1.88,0,0,0-.68.8,4.86,4.86,0,0,0-.43,1.43,13,13,0,0,0-.15,2.14v2.89a13.23,13.23,0,0,0,.15,2.15,5.26,5.26,0,0,0,.43,1.47,1.93,1.93,0,0,0,.7.84,1.64,1.64,0,0,0,.93.27,1.67,1.67,0,0,0,.94-.27,1.83,1.83,0,0,0,.68-.84,5.31,5.31,0,0,0,.41-1.47,13.34,13.34,0,0,0,.14-2.15Z" transform="translate(-26.58 -21.13)"/>
    <path class="cls-2" d="M108.86,29.9a14.29,14.29,0,0,1-.28,3.09,6,6,0,0,1-.8,2,3.07,3.07,0,0,1-1.25,1.11,4.17,4.17,0,0,1-3.3,0A3.16,3.16,0,0,1,102,35a6,6,0,0,1-.82-2,14.29,14.29,0,0,1-.28-3.09V27.62a14.13,14.13,0,0,1,.28-3.08,5.88,5.88,0,0,1,.81-2,3.08,3.08,0,0,1,1.26-1.08,3.92,3.92,0,0,1,1.63-.33,4.07,4.07,0,0,1,1.66.33,3.08,3.08,0,0,1,1.26,1.08,5.88,5.88,0,0,1,.81,2,14.13,14.13,0,0,1,.28,3.08Zm-1.81-2.6a14.36,14.36,0,0,0-.14-2.14,4.86,4.86,0,0,0-.43-1.43,1.88,1.88,0,0,0-.68-.8,1.86,1.86,0,0,0-1-.24,1.78,1.78,0,0,0-.92.24,2,2,0,0,0-.69.8,5.21,5.21,0,0,0-.42,1.43,13,13,0,0,0-.15,2.14v2.89a13.23,13.23,0,0,0,.15,2.15,5.26,5.26,0,0,0,.43,1.47,2,2,0,0,0,.69.84,1.77,1.77,0,0,0,1.88,0,1.9,1.9,0,0,0,.68-.84,5.31,5.31,0,0,0,.41-1.47,14.6,14.6,0,0,0,.14-2.15Z" transform="translate(-26.58 -21.13)"/>
  </g>
  <g class="cls-3">
    <path class="cls-2" d="M91.26,217.09l.64-7.44h6.49v1.75h-5l-.35,4.07a4.67,4.67,0,0,1,.84-.44,2.91,2.91,0,0,1,1.15-.21,3.36,3.36,0,0,1,1.57.36,3.13,3.13,0,0,1,1.17,1,4.81,4.81,0,0,1,.74,1.58,7.7,7.7,0,0,1,.25,2.06,7.25,7.25,0,0,1-.25,2,4.34,4.34,0,0,1-.76,1.57,3.54,3.54,0,0,1-1.26,1,4,4,0,0,1-1.78.37,4.13,4.13,0,0,1-1.45-.25,3.58,3.58,0,0,1-1.21-.76,4,4,0,0,1-.86-1.3,5.41,5.41,0,0,1-.42-1.82h1.7a3.5,3.5,0,0,0,.73,1.93,1.91,1.91,0,0,0,1.51.65,2,2,0,0,0,1-.23,2.19,2.19,0,0,0,.71-.68,3.63,3.63,0,0,0,.44-1.07,6.1,6.1,0,0,0,.15-1.41,4.87,4.87,0,0,0-.16-1.3,3.54,3.54,0,0,0-.46-1.06,2.16,2.16,0,0,0-.74-.7,2,2,0,0,0-1-.25,3.1,3.1,0,0,0-.66.06,2.09,2.09,0,0,0-.48.19,2.78,2.78,0,0,0-.4.3l-.39.4Z" transform="translate(-26.58 -21.13)"/>
    <path class="cls-2" d="M108.86,218.21a14.29,14.29,0,0,1-.28,3.09,6,6,0,0,1-.8,2,2.93,2.93,0,0,1-1.25,1.11,4.17,4.17,0,0,1-3.3,0,3,3,0,0,1-1.26-1.11,6,6,0,0,1-.82-2,14.29,14.29,0,0,1-.28-3.09v-2.28a14,14,0,0,1,.28-3.07,5.71,5.71,0,0,1,.81-2,3,3,0,0,1,1.26-1.09,3.92,3.92,0,0,1,1.63-.33,4.07,4.07,0,0,1,1.66.33,3,3,0,0,1,1.26,1.09,5.71,5.71,0,0,1,.81,2,14,14,0,0,1,.28,3.07Zm-1.81-2.6a14.36,14.36,0,0,0-.14-2.14,5,5,0,0,0-.43-1.43,1.79,1.79,0,0,0-.68-.79,1.77,1.77,0,0,0-1-.25,1.69,1.69,0,0,0-.92.25,1.88,1.88,0,0,0-.69.79,5.31,5.31,0,0,0-.42,1.43,13,13,0,0,0-.15,2.14v2.89a13.14,13.14,0,0,0,.15,2.15,5.45,5.45,0,0,0,.43,1.48,2.11,2.11,0,0,0,.69.84,1.83,1.83,0,0,0,1.88,0,2,2,0,0,0,.68-.84,5.49,5.49,0,0,0,.41-1.48,14.51,14.51,0,0,0,.14-2.15Z" transform="translate(-26.58 -21.13)"/>
  </g>
  <g class="cls-3">
    <path class="cls-2" d="M108.86,406.52a14.29,14.29,0,0,1-.28,3.09,5.89,5.89,0,0,1-.8,2,2.93,2.93,0,0,1-1.25,1.11,4.17,4.17,0,0,1-3.3,0,3,3,0,0,1-1.26-1.11,5.89,5.89,0,0,1-.82-2,14.29,14.29,0,0,1-.28-3.09v-2.28a14,14,0,0,1,.28-3.07,5.71,5.71,0,0,1,.81-2,3,3,0,0,1,1.26-1.09,3.92,3.92,0,0,1,1.63-.33,4.07,4.07,0,0,1,1.66.33,3,3,0,0,1,1.26,1.09,5.71,5.71,0,0,1,.81,2,14,14,0,0,1,.28,3.07Zm-1.81-2.59a14.41,14.41,0,0,0-.14-2.15,5.06,5.06,0,0,0-.43-1.43,1.85,1.85,0,0,0-.68-.79,1.77,1.77,0,0,0-1-.25,1.69,1.69,0,0,0-.92.25,1.94,1.94,0,0,0-.69.79,5.43,5.43,0,0,0-.42,1.43,13.06,13.06,0,0,0-.15,2.15v2.89a13.32,13.32,0,0,0,.15,2.15,5.48,5.48,0,0,0,.43,1.47,2.11,2.11,0,0,0,.69.84,1.83,1.83,0,0,0,1.88,0,2,2,0,0,0,.68-.84,5.52,5.52,0,0,0,.41-1.47,14.7,14.7,0,0,0,.14-2.15Z" transform="translate(-26.58 -21.13)"/>
  </g>
  <polyline class="cls-1" points="462.75 385.62 372.75 385.62 306.08 15.13 239.41 385.62 149.41 385.62"/>
  <polyline class="cls-1" points="580.75 385.62 490.75 385.62 424.08 15.13 357.42 385.62 267.42 385.62"/>
  <line class="cls-4" x1="116.5" y1="197.31" x2="619.75" y2="197.31"/>
  <line class="cls-4" x1="116.5" y1="339.31" x2="359.75" y2="339.31"/>
  <g id="xTitle" class="cls-3">
    <path class="cls-5" d="M504.77,65.69H503V53.05l-3.14,1.41V52.73l4.67-2h.29Z" transform="translate(-26.58 -21.13)"/>
    <path class="cls-5" d="M517.71,59.33a14.29,14.29,0,0,1-.28,3.09,6.18,6.18,0,0,1-.8,2,3.09,3.09,0,0,1-1.26,1.11,4.15,4.15,0,0,1-3.29,0,3.16,3.16,0,0,1-1.26-1.11,5.77,5.77,0,0,1-.82-2,14.22,14.22,0,0,1-.29-3.09V57.05A14.06,14.06,0,0,1,510,54a5.88,5.88,0,0,1,.81-2,3.08,3.08,0,0,1,1.26-1.08,3.92,3.92,0,0,1,1.63-.33,4,4,0,0,1,1.65.33A3,3,0,0,1,516.61,52a5.88,5.88,0,0,1,.81,2,13.47,13.47,0,0,1,.29,3.08Zm-1.81-2.6a13,13,0,0,0-.15-2.14,4.59,4.59,0,0,0-.42-1.43,1.88,1.88,0,0,0-.68-.8,1.86,1.86,0,0,0-.95-.24,1.79,1.79,0,0,0-.93.24,2,2,0,0,0-.68.8,5.21,5.21,0,0,0-.42,1.43,13,13,0,0,0-.15,2.14v2.89a13.23,13.23,0,0,0,.15,2.15,5.26,5.26,0,0,0,.43,1.47,2,2,0,0,0,.69.84,1.64,1.64,0,0,0,.93.27,1.7,1.7,0,0,0,.95-.27,1.9,1.9,0,0,0,.68-.84,5.31,5.31,0,0,0,.41-1.47,14.6,14.6,0,0,0,.14-2.15Z" transform="translate(-26.58 -21.13)"/>
    <path class="cls-5" d="M520,53.64a3.87,3.87,0,0,1,.18-1.2,3.15,3.15,0,0,1,.51-1,2.3,2.3,0,0,1,.82-.66,2.28,2.28,0,0,1,1.09-.25,2.42,2.42,0,0,1,1.93.91,2.78,2.78,0,0,1,.51,1,3.87,3.87,0,0,1,.18,1.2v.78a3.85,3.85,0,0,1-.18,1.19,2.79,2.79,0,0,1-.5,1,2.66,2.66,0,0,1-.82.67,2.44,2.44,0,0,1-1.1.24,2.47,2.47,0,0,1-1.1-.24,2.55,2.55,0,0,1-.82-.67,2.83,2.83,0,0,1-.52-1,3.85,3.85,0,0,1-.18-1.19Zm1.32.78a3,3,0,0,0,.08.69,1.83,1.83,0,0,0,.24.59,1.46,1.46,0,0,0,.41.41,1.05,1.05,0,0,0,.57.15,1,1,0,0,0,.56-.15,1.3,1.3,0,0,0,.4-.41,1.77,1.77,0,0,0,.24-.58,3.13,3.13,0,0,0,.08-.7v-.78a3.27,3.27,0,0,0-.08-.7,1.93,1.93,0,0,0-.24-.59,1.46,1.46,0,0,0-.41-.41,1.16,1.16,0,0,0-1.14,0,1.42,1.42,0,0,0-.4.41,2.2,2.2,0,0,0-.23.59,3.27,3.27,0,0,0-.08.7ZM523,64.57l-1-.68,6.12-11.67,1,.68ZM526,62a3.94,3.94,0,0,1,.18-1.19,3,3,0,0,1,.51-1,2.44,2.44,0,0,1,.82-.67,2.39,2.39,0,0,1,1.09-.24,2.44,2.44,0,0,1,1.1.24,2.58,2.58,0,0,1,.83.67,2.83,2.83,0,0,1,.52,1,3.94,3.94,0,0,1,.18,1.19v.8a3.87,3.87,0,0,1-.18,1.2,2.83,2.83,0,0,1-.52,1,2.49,2.49,0,0,1-.82.66,2.28,2.28,0,0,1-1.09.25,2.34,2.34,0,0,1-1.1-.25,2.39,2.39,0,0,1-.82-.66,2.83,2.83,0,0,1-.52-1,3.87,3.87,0,0,1-.18-1.2Zm1.32.8a3.27,3.27,0,0,0,.08.7,1.93,1.93,0,0,0,.24.59,1.46,1.46,0,0,0,.41.41,1.05,1.05,0,0,0,.57.15,1,1,0,0,0,.56-.15,1.3,1.3,0,0,0,.4-.41,1.93,1.93,0,0,0,.24-.59,3.26,3.26,0,0,0,.07-.7V62a3.11,3.11,0,0,0-.07-.69,1.69,1.69,0,0,0-.24-.58,1.34,1.34,0,0,0-.41-.41,1.05,1.05,0,0,0-.57-.15,1,1,0,0,0-.56.15,1.31,1.31,0,0,0-.4.41,1.69,1.69,0,0,0-.24.58,3.1,3.1,0,0,0-.08.69Z" transform="translate(-26.58 -21.13)"/>
    <path class="cls-5" d="M541.5,62.94l2.1-8.34h1.85l-3.29,11.09H540.8L537.47,54.6h1.85Z" transform="translate(-26.58 -21.13)"/>
    <path class="cls-5" d="M552.89,65.69a2.34,2.34,0,0,1-.15-.52c0-.22-.06-.45-.08-.69a3.38,3.38,0,0,1-.45.55,3.07,3.07,0,0,1-.56.45,3.22,3.22,0,0,1-.68.31,2.76,2.76,0,0,1-.77.11,3.89,3.89,0,0,1-1.32-.21,2.66,2.66,0,0,1-1-.61,2.71,2.71,0,0,1-.65-1,4.36,4.36,0,0,1,0-2.88,3.31,3.31,0,0,1,.82-1.17,4.12,4.12,0,0,1,1.37-.77,5.78,5.78,0,0,1,1.91-.28h1.26V57.79A1.56,1.56,0,0,0,550.84,56a2.13,2.13,0,0,0-.78.14,1.67,1.67,0,0,0-.58.38,1.51,1.51,0,0,0-.36.54,1.85,1.85,0,0,0-.12.67h-1.82a3,3,0,0,1,.26-1.19,3.49,3.49,0,0,1,.75-1.05,3.63,3.63,0,0,1,1.19-.76,4,4,0,0,1,1.55-.29,5.12,5.12,0,0,1,1.41.19,2.82,2.82,0,0,1,1.11.59,2.77,2.77,0,0,1,.72,1.06,4.12,4.12,0,0,1,.26,1.58v5.46c0,.19,0,.38,0,.59a5.79,5.79,0,0,0,.07.6c0,.2.07.39.11.57a5,5,0,0,0,.15.5v.16Zm-2.42-1.44a2.41,2.41,0,0,0,.72-.11,3,3,0,0,0,.62-.3,2.37,2.37,0,0,0,.48-.41,2.43,2.43,0,0,0,.34-.47V60.31h-1a4.77,4.77,0,0,0-1.18.14,2.88,2.88,0,0,0-.9.42,1.87,1.87,0,0,0-.58.67,2.06,2.06,0,0,0-.2.91,3.36,3.36,0,0,0,.1.85,1.2,1.2,0,0,0,.83.86A2.65,2.65,0,0,0,550.47,64.25Z" transform="translate(-26.58 -21.13)"/>
    <path class="cls-5" d="M559.2,65.69h-1.82V49.94h1.82Z" transform="translate(-26.58 -21.13)"/>
    <path class="cls-5" d="M564,65.69h-1.82V49.94H564Z" transform="translate(-26.58 -21.13)"/>
    <path class="cls-5" d="M570.83,65.9a5.11,5.11,0,0,1-1.8-.3,3.51,3.51,0,0,1-1.36-.91,4.08,4.08,0,0,1-.85-1.54,7.22,7.22,0,0,1-.3-2.2V59.7a7.71,7.71,0,0,1,.35-2.48,4.69,4.69,0,0,1,.92-1.64,3.38,3.38,0,0,1,1.3-.91,4.45,4.45,0,0,1,1.53-.28,4.23,4.23,0,0,1,1.79.35,3,3,0,0,1,1.21,1,4.46,4.46,0,0,1,.68,1.64,10.06,10.06,0,0,1,.22,2.24v1.06h-6.19V61a4,4,0,0,0,.67,2.59,2.35,2.35,0,0,0,1.93.81,3.52,3.52,0,0,0,.83-.09,2.91,2.91,0,0,0,.68-.26,3.78,3.78,0,0,0,.56-.4,5.79,5.79,0,0,0,.48-.51l.95,1.15a3.89,3.89,0,0,1-.55.61,3.11,3.11,0,0,1-.76.53,4.43,4.43,0,0,1-1,.38A5.58,5.58,0,0,1,570.83,65.9Zm-.21-10a2.49,2.49,0,0,0-.87.15,1.55,1.55,0,0,0-.7.5,2.81,2.81,0,0,0-.49,1,6.79,6.79,0,0,0-.23,1.55h4.37v-.24a7.06,7.06,0,0,0-.14-1.19,3,3,0,0,0-.33-.93,1.62,1.62,0,0,0-.62-.6A2,2,0,0,0,570.62,56Z" transform="translate(-26.58 -21.13)"/>
    <path class="cls-5" d="M579.59,62.68l2-8.08h1.93l-3.67,12.81a7.9,7.9,0,0,1-.34.89,4.66,4.66,0,0,1-.56.9,3,3,0,0,1-.82.69,2.07,2.07,0,0,1-1.1.28h-.23l-.27,0-.25,0-.19,0V68.47a.49.49,0,0,0,.2,0h.2a2.6,2.6,0,0,0,.71-.09,1.44,1.44,0,0,0,.54-.3,1.75,1.75,0,0,0,.42-.56,4.85,4.85,0,0,0,.33-.86l.32-1.1-3.26-11h2Z" transform="translate(-26.58 -21.13)"/>
  </g>
</svg>
