<?xml version="1.0" encoding="utf-8"?>
<!-- Generator: Adobe Illustrator 22.1.0, SVG Export Plug-In . SVG Version: 6.00 Build 0)  -->
<svg version="1.1" id="Capa_1" xmlns="http://www.w3.org/2000/svg" xmlns:xlink="http://www.w3.org/1999/xlink" x="0px" y="0px"
	 viewBox="0 0 512 512" style="enable-background:new 0 0 512 512;" xml:space="preserve">
<style type="text/css">
	.st0{fill:#FFFFFF;}
</style>
<path class="st0" d="M375.2,201.1l-24.9,16.6c15.5,23.2,15.5,53.3,0,76.6l24.9,16.6C397.4,277.6,397.4,234.4,375.2,201.1z"/>
<path class="st0" d="M425.1,167.8l-6.7-10.1l-24.9,16.6l6.7,10.1c29,43.5,29,99.6,0,143.1l-6.7,10.1l24.9,16.6l6.7-10.1
	C460.8,290.6,460.8,221.4,425.1,167.8z"/>
<path class="st0" d="M475,134.6l-6.7-10.1l-25,16.6l6.7,10.1c42.5,63.7,42.5,145.9,0,209.6l-6.7,10.1l24.9,16.6l6.7-10.1
	C524.2,303.7,524.2,208.3,475,134.6z"/>
<g>
	<polygon class="st0" points="186.8,146.5 300.9,60.2 300.9,170.8 330.9,140.8 330.9,0 165.4,125.1 	"/>
	<polygon class="st0" points="300.9,251.4 300.9,260.6 330.9,290.6 330.9,221.4 	"/>
	<polygon class="st0" points="300.9,341.2 300.9,451.8 186.8,365.5 165.4,386.9 330.9,512 330.9,371.2 	"/>
	<path class="st0" d="M151,320.7V191.3l-40.2-40.2H0.1V361h110.6L151,320.7z M30,181h91v150H30V181z"/>
</g>
<rect x="241" y="0" transform="matrix(0.7071 0.7071 -0.7071 0.7071 255.9982 -106.0342)" class="st0" width="30" height="512"/>
<rect x="241" y="0" transform="matrix(-0.7071 0.7071 -0.7071 -0.7071 618.028 256.0044)" class="st0" width="30" height="512"/>
</svg>
