<?xml version="1.0" encoding="utf-8"?>
<!-- Generator: Adobe Illustrator 22.1.0, SVG Export Plug-In . SVG Version: 6.00 Build 0)  -->
<svg version="1.1" id="Capa_1" xmlns="http://www.w3.org/2000/svg" xmlns:xlink="http://www.w3.org/1999/xlink" x="0px" y="0px"
	 viewBox="0 0 384 384" style="enable-background:new 0 0 384 384;" xml:space="preserve">
<style type="text/css">
	.st0{fill:#FFFFFF;}
</style>
<polygon class="st0" points="59.8,59.8 127.1,59.8 127.1,37.4 37.4,37.4 37.4,127.1 59.8,127.1 "/>
<polygon class="st0" points="59.8,256.9 37.4,256.9 37.4,346.6 127.1,346.6 127.1,324.2 59.8,324.2 "/>
<polygon class="st0" points="324.2,324.2 256.9,324.2 256.9,346.6 346.6,346.6 346.6,256.9 324.2,256.9 "/>
<polygon class="st0" points="256.9,37.4 256.9,59.8 324.2,59.8 324.2,127.1 346.6,127.1 346.6,37.4 "/>
<polygon class="st0" points="286.4,270.5 207.8,192 286.4,113.5 270.5,97.6 192,176.2 113.5,97.6 97.6,113.5 176.2,192 97.6,270.5 
	113.5,286.4 192,207.8 270.5,286.4 "/>
</svg>
