<?xml version="1.0" encoding="utf-8"?>
<!-- Generator: Adobe Illustrator 22.1.0, SVG Export Plug-In . SVG Version: 6.00 Build 0)  -->
<svg version="1.1" id="Слой_1" xmlns="http://www.w3.org/2000/svg" xmlns:xlink="http://www.w3.org/1999/xlink" x="0px" y="0px"
	 viewBox="0 0 512 512" style="enable-background:new 0 0 512 512;" xml:space="preserve">
<style type="text/css">
	.st0{fill:#FFFFFF;}
</style>
<g id="solid">
	<path class="st0" d="M55.2,155.1c0,6.5,3.5,12.5,9.1,15.8v-31.6C58.7,142.6,55.2,148.6,55.2,155.1L55.2,155.1z"/>
	<path class="st0" d="M393.2,347.4V72.9h-54.8c-5,0-9.1-4.1-9.1-9.1V9H82.6v70.6c4.3-2.4,7.3-6.5,8.6-11.2c1.3-4.9,6.2-7.8,11.1-6.6
		c4.9,1.3,7.8,6.2,6.6,11.1c-3.3,12.9-13.4,22.9-26.3,26.3V171c4.3-2.4,7.3-6.5,8.6-11.2c1.3-4.9,6.2-7.8,11.1-6.6
		c4.9,1.3,7.8,6.2,6.6,11.1l0,0c-3.3,12.9-13.4,22.9-26.3,26.3v71.8c4.3-2.4,7.3-6.5,8.6-11.2c1.3-4.9,6.2-7.8,11.1-6.6
		s7.8,6.2,6.6,11.1l0,0c-3.3,12.9-13.4,22.9-26.3,26.3v62.6c4.3-2.4,7.3-6.5,8.6-11.2c1.3-4.9,6.2-7.8,11.1-6.6
		c4.9,1.3,7.8,6.2,6.6,11.1l0,0c-3.3,12.9-13.4,22.9-26.3,26.3v46.8H356L393.2,347.4z M146.6,91.2h200.9c5,0,9.1,4.1,9.1,9.1
		c0,5-4.1,9.1-9.1,9.1H146.6c-5,0-9.1-4.1-9.1-9.1C137.4,95.3,141.5,91.2,146.6,91.2z M146.6,146h200.9c5,0,9.1,4.1,9.1,9.1
		c0,5-4.1,9.1-9.1,9.1H146.6c-5,0-9.1-4.1-9.1-9.1C137.4,150.1,141.5,146,146.6,146z M146.6,200.8h200.9c5,0,9.1,4.1,9.1,9.1
		s-4.1,9.1-9.1,9.1H146.6c-5,0-9.1-4.1-9.1-9.1S141.5,200.8,146.6,200.8z M219.6,328.7h-73.1c-5,0-9.1-4.1-9.1-9.1s4.1-9.1,9.1-9.1
		h73.1c5,0,9.1,4.1,9.1,9.1S224.7,328.7,219.6,328.7z M347.5,273.9H146.6c-5,0-9.1-4.1-9.1-9.1c0-5,4.1-9.1,9.1-9.1h200.9
		c5,0,9.1,4.1,9.1,9.1C356.6,269.8,352.5,273.9,347.5,273.9z"/>
	<path class="st0" d="M55.2,246.5c0,6.5,3.5,12.5,9.1,15.8v-31.6C58.7,233.9,55.2,240,55.2,246.5L55.2,246.5z"/>
	<path class="st0" d="M408.8,57.4c1.7,1.7,2.7,4,2.7,6.4v252.4l18.4-31.5c-0.1-0.6-0.2-1.2-0.2-1.8V36.4h-41.9L408.8,57.4
		L408.8,57.4z"/>
	<path class="st0" d="M347.5,21.9v32.8h32.8L347.5,21.9z"/>
	<path class="st0" d="M55.2,328.7c0,6.5,3.5,12.5,9.1,15.8v-31.6C58.7,316.2,55.2,322.2,55.2,328.7L55.2,328.7z"/>
	<path class="st0" d="M55.2,63.8c0,6.5,3.5,12.5,9.1,15.8V48C58.7,51.3,55.2,57.3,55.2,63.8z"/>
	<path class="st0" d="M330.6,508.4l10.2-7.9l-8.2-4.8L330.6,508.4z"/>
	<path class="st0" d="M338.2,477.8l120.2-204.9l15.8,9.2L354,487.1L338.2,477.8z"/>
	<path class="st0" d="M498.3,222.3c-4.4-2.5-9.9-1.1-12.5,3.3l-4.6,7.9l15.8,9.2l4.6-7.9C504.1,230.4,502.6,224.9,498.3,222.3
		L498.3,222.3z"/>
	<path class="st0" d="M467.5,257.1l4.6-7.9l15.8,9.2l-4.6,7.9L467.5,257.1z"/>
	<path class="st0" d="M345.3,429.2H100.9v18.3h233.7L345.3,429.2z"/>
	<path class="st0" d="M429.7,447.4v-54l-31.6,54H429.7z"/>
</g>
</svg>
