<?xml version="1.0" encoding="utf-8"?>
<!-- Generator: Adobe Illustrator 22.1.0, SVG Export Plug-In . SVG Version: 6.00 Build 0)  -->
<svg version="1.1" id="Слой_2_Изображение"
	 xmlns="http://www.w3.org/2000/svg" xmlns:xlink="http://www.w3.org/1999/xlink" x="0px" y="0px" viewBox="0 0 510.2 510.2"
	 style="enable-background:new 0 0 510.2 510.2;" xml:space="preserve">
<title>srtucture</title>
<path d="M507.3,438.1c-0.8,4.3-1.3,8.7-2.2,13c-7.3,29.9-33.8,49.7-65,48.4c-29.1-1.1-54.2-23.7-59.1-52.9
	c-6.7-39.5,25.1-75.3,65.3-73.7c30.7,1.3,58,25.6,60.4,58.3c0.2,1.3,0.5,2.5,0.8,3.7L507.3,438.1z"/>
<path d="M318.1,73.9c-0.2,34.9-28.4,63.2-63.4,63.1s-63.2-28.4-63.1-63.4c0.2-34.9,28.4-63.2,63.4-63.1
	C290,10.7,318.1,39,318.1,73.9z"/>
<path d="M66.3,373.1c34.9,0,63.2,28.4,63.2,63.4s-28.4,63.2-63.4,63.2S2.9,471.3,2.9,436.3v-0.2C2.9,401.2,31.3,373.1,66.3,373.1z"
	/>
<path d="M255.1,248.9c30.5,0.2,55.3,25.1,55.1,55.6c-0.2,30.5-25.1,55.3-55.6,55.1c-30.5-0.2-55.1-24.9-55.1-55.4
	s24.8-55.3,55.4-55.3C254.9,248.9,254.9,248.9,255.1,248.9z"/>
<path d="M230,372.3l-4.9,12.7c-14.8-5.2-26.5-14.1-36.7-25.6l-56.9,39.7l-7.9-11.4l56.9-39.9c-7.5-13.5-11.8-27.5-11.6-43.4
	c4,0,7.6,0,11.3,0c2.2,0,2.2,1.4,2.4,3c1.3,6.8,1.9,14,4.1,20.5c6.8,19.9,20.2,34,39.4,42.6C227.3,370.9,228.4,371.5,230,372.3z"/>
<path d="M386.3,387.7c-2.4,3.5-4.6,6.5-6.7,9.7c-0.3,0.5-0.8,1-1.4,1.6l-56.7-39.7c-9.7,11.6-22.4,20.5-36.7,25.7
	c-1.6-4.3-3.2-8.3-4.9-12.7c1.6-0.8,3-1.3,4.3-1.9c25.6-12.2,40-32.4,42.7-60.7c0.5-5.2,0.3-5.2,5.6-5.1c2.7,0,5.6,0,8.6,0
	c0,15.2-4.1,30.2-11.6,43.4L386.3,387.7z"/>
<path d="M213.5,244.8l-7.5-11.1c1.1-0.8,2.1-1.6,3-2.1c10.6-7,22.9-11.3,35.6-12.7c3-0.3,3.8-1.4,3.8-4.3c-0.2-19.1,0-38.1,0-57.2
	c0-8.7,0-8.7,8.9-8.7c1.4,0,3,0.2,4.8,0.2v4.8c0,20.2,0,40.3,0,60.7c0,2.9,0.6,4.1,3.8,4.4c13.8,1.6,27,6.7,38.4,14.8l-7.6,11.3
	C268.7,227.6,241.3,227.5,213.5,244.8z"/>
</svg>
